<svg width="19" height="18" viewBox="0 0 19 18" fill="none" xmlns="http://www.w3.org/2000/svg">
<path d="M13.7072 7.66604L11.0166 4.28146C10.9554 4.20454 10.8798 4.1405 10.794 4.09299C10.7083 4.04548 10.614 4.01544 10.5167 4.00458C10.4194 3.99371 10.3209 4.00224 10.2269 4.02967C10.1329 4.05711 10.0451 4.10291 9.96869 4.16446C9.89224 4.22602 9.8286 4.30212 9.78139 4.38842C9.73417 4.47472 9.70432 4.56954 9.69352 4.66746C9.68272 4.76537 9.6912 4.86447 9.71846 4.95908C9.74572 5.0537 9.79124 5.14199 9.85242 5.21891L11.8648 7.75004H0.745322C0.547651 7.75004 0.358075 7.82905 0.2183 7.96969C0.0785249 8.11034 0 8.3011 0 8.5C0 8.6989 0.0785249 8.88966 0.2183 9.0303C0.358075 9.17095 0.547651 9.24996 0.745322 9.24996H11.8648L9.85242 11.7811C9.72887 11.9364 9.67171 12.1348 9.69352 12.3325C9.71532 12.5303 9.8143 12.7112 9.96869 12.8355C10.1231 12.9599 10.3202 13.0174 10.5167 12.9954C10.7133 12.9735 10.8931 12.8739 11.0166 12.7185L13.7065 9.33471C13.8963 9.09861 13.9999 8.80417 14 8.50051C14.0001 8.19684 13.8968 7.90231 13.7072 7.66604Z" fill="url(#paint0_linear_783_2749)"/>
<path d="M17.1 18H8.9C8.38554 17.9882 7.89673 17.7729 7.54066 17.4014C7.1846 17.0298 6.99031 16.5323 7.00037 16.0177C7.00037 15.8188 7.07938 15.6281 7.22003 15.4874C7.36067 15.3468 7.55143 15.2677 7.75033 15.2677C7.94923 15.2677 8.13998 15.3468 8.28062 15.4874C8.42127 15.6281 8.50028 15.8188 8.50028 16.0177C8.49121 16.1343 8.52786 16.2498 8.60247 16.3398C8.67708 16.4299 8.78379 16.4873 8.9 16.5H17.1C17.2162 16.4873 17.3229 16.4299 17.3975 16.3398C17.4721 16.2498 17.5088 16.1343 17.4997 16.0177V1.98225C17.5088 1.86569 17.4721 1.75017 17.3975 1.66015C17.3229 1.57014 17.2162 1.5127 17.1 1.5H8.9C8.78379 1.5127 8.67708 1.57014 8.60247 1.66015C8.52786 1.75017 8.49121 1.86569 8.50028 1.98225C8.50028 2.18116 8.42127 2.37193 8.28062 2.51258C8.13998 2.65323 7.94923 2.73225 7.75033 2.73225C7.55143 2.73225 7.36067 2.65323 7.22003 2.51258C7.07938 2.37193 7.00037 2.18116 7.00037 1.98225C6.99031 1.46772 7.1846 0.970171 7.54066 0.59862C7.89673 0.22707 8.38554 0.0118099 8.9 0H17.1C17.6145 0.0118099 18.1033 0.22707 18.4593 0.59862C18.8154 0.970171 19.0097 1.46772 18.9996 1.98225V16.0177C19.0097 16.5323 18.8154 17.0298 18.4593 17.4014C18.1033 17.7729 17.6145 17.9882 17.1 18Z" fill="url(#paint1_linear_783_2749)"/>
<defs>
<linearGradient id="paint0_linear_783_2749" x1="-0.470297" y1="0.658535" x2="21.9276" y2="4.185" gradientUnits="userSpaceOnUse">
<stop stop-color="#E46703"/>
<stop offset="1" stop-color="#C7340D"/>
</linearGradient>
<linearGradient id="paint1_linear_783_2749" x1="-0.470297" y1="0.658535" x2="21.9276" y2="4.185" gradientUnits="userSpaceOnUse">
<stop stop-color="#E46703"/>
<stop offset="1" stop-color="#C7340D"/>
</linearGradient>
</defs>
</svg>
